<svg width="18" height="22" viewBox="0 0 18 22" fill="none" xmlns="http://www.w3.org/2000/svg">
<path d="M7.00003 10C7.00003 9.44771 6.55232 9 6.00003 9C5.44775 9 5.00003 9.44771 5.00003 10V11C5.00003 11.5523 5.44775 12 6.00003 12C6.55232 12 7.00003 11.5523 7.00003 11V10Z" fill="#121212"/>
<path d="M12 9C12.5523 9 13 9.44771 13 10V11C13 11.5523 12.5523 12 12 12C11.4477 12 11 11.5523 11 11V10C11 9.44771 11.4477 9 12 9Z" fill="#121212"/>
<path fill-rule="evenodd" clip-rule="evenodd" d="M9.00008 0C6.23863 0 4.00003 2.2386 4.00003 5.00005V5.14387C3.56214 5.24276 3.14546 5.4184 2.77488 5.74285C2.2851 6.17167 2.04233 6.71466 1.88927 7.29289C1.74708 7.83004 1.65732 8.50358 1.55393 9.27933L0.603223 16.4096C0.4706 17.4039 0.35731 18.2532 0.362214 18.9365C0.367438 19.6643 0.504155 20.3787 1.02724 20.9762C1.55032 21.5736 2.24044 21.8036 2.96112 21.9049C3.63774 22.0001 4.49459 22.0001 5.49766 22H12.5024C13.5055 22.0001 14.3623 22.0001 15.0389 21.9049C15.7596 21.8036 16.4497 21.5736 16.9728 20.9762C17.4959 20.3787 17.6326 19.6643 17.6378 18.9365C17.6427 18.2532 17.5294 17.4039 17.3968 16.4096L16.4461 9.27936C16.3427 8.5036 16.253 7.83005 16.1108 7.29289C15.9577 6.71466 15.715 6.17167 15.2252 5.74285C14.8546 5.41843 14.438 5.24279 14.0001 5.1439L14.0001 4.99993C14.0001 2.23852 11.7615 0 9.00008 0ZM12.0001 5.00048C12.0001 3.34363 10.6569 2 9.00008 2C7.3432 2 6.00003 3.34317 6.00003 5.00005C6.14329 4.99955 6.29058 4.99999 6.44171 5H11.5583C11.7095 4.99999 11.8568 4.99999 12.0001 5.00048ZM4.09233 7.24762C4.16819 7.18121 4.29784 7.10246 4.68014 7.05395C5.09048 7.00189 5.6416 7 6.50209 7H11.498C12.3584 7 12.9096 7.00189 13.3199 7.05395C13.7022 7.10247 13.8319 7.18121 13.9077 7.24762C13.9836 7.31403 14.0788 7.43214 14.1774 7.80468C14.2832 8.20453 14.3579 8.75057 14.4716 9.60351L15.405 16.6035C15.5496 17.6879 15.6417 18.3964 15.6379 18.9222C15.6343 19.4196 15.5425 19.5736 15.468 19.6587C15.3935 19.7438 15.2529 19.8552 14.7604 19.9244C14.2397 19.9977 13.5253 20 12.4313 20H5.56876C4.47477 20 3.76036 19.9977 3.23967 19.9244C2.7471 19.8552 2.60651 19.7438 2.53201 19.6587C2.45751 19.5736 2.36573 19.4196 2.36216 18.9222C2.35839 18.3964 2.45049 17.6879 2.59507 16.6035L3.52841 9.60351C3.64213 8.75057 3.71684 8.20453 3.82268 7.80468C3.92129 7.43214 4.01648 7.31404 4.09233 7.24762Z" fill="#121212"/>
</svg>
