<svg width="24" height="24" viewBox="0 0 24 24" fill="none" xmlns="http://www.w3.org/2000/svg">
<path d="M12.9976 14C12.9976 13.449 12.5509 13.0023 12 13.0023C11.449 13.0023 11.0023 13.449 11.0023 14V15C11.0023 15.551 11.449 15.9976 12 15.9976C12.5509 15.9976 12.9976 15.551 12.9976 15V14Z" fill="#2E2E2E"/>
<path d="M15.5297 13.0023C16.0807 13.0023 16.5274 13.449 16.5274 14V15C16.5274 15.551 16.0807 15.9976 15.5297 15.9976C14.9788 15.9976 14.5321 15.551 14.5321 15V14C14.5321 13.449 14.9788 13.0023 15.5297 13.0023Z" fill="#2E2E2E"/>
<path d="M9.46831 14C9.46831 13.449 9.02165 13.0023 8.47066 13.0023C7.91968 13.0023 7.47302 13.449 7.47302 14V15C7.47302 15.551 7.91968 15.9976 8.47066 15.9976C9.02165 15.9976 9.46831 15.551 9.46831 15V14Z" fill="#2E2E2E"/>
<path fill-rule="evenodd" clip-rule="evenodd" d="M6.99976 7.00005C6.99976 4.2386 9.23835 2 11.9998 2C14.7612 2 16.9998 4.23852 16.9999 6.99993L16.9999 7.9996C17.9251 8.00064 18.7191 8.01056 19.356 8.10189C20.1141 8.21059 20.8404 8.45805 21.3679 9.10681C21.8955 9.75558 21.9896 10.5171 21.9414 11.2814C21.896 12.0022 21.7098 12.8956 21.4907 13.947L20.6306 18.0754C20.4818 18.79 20.3521 19.4127 20.1839 19.9083C20.0026 20.4429 19.7426 20.9398 19.2663 21.3271C18.79 21.7144 18.2505 21.8676 17.6902 21.9361C17.1707 21.9996 16.5346 21.9995 15.8047 21.9995H8.19511C7.46526 21.9995 6.82913 21.9996 6.30965 21.9361C5.74936 21.8676 5.20983 21.7144 4.73354 21.3271C4.25724 20.9398 3.99724 20.4429 3.81592 19.9083C3.6478 19.4127 3.51809 18.7899 3.36928 18.0754L2.50919 13.947C2.29011 12.8956 2.10392 12.0022 2.05847 11.2814C2.01027 10.5171 2.10439 9.75558 2.63193 9.10681C3.15946 8.45805 3.88576 8.21059 4.64387 8.10189C5.28076 8.01056 6.07467 8.00064 6.99976 7.9996V7.00005ZM14.9999 6.99998L14.9999 7.99948L8.99976 7.99949V7.00005C8.99976 5.34317 10.3429 4 11.9998 4C13.6567 4 14.9998 5.34312 14.9999 6.99998ZM4.92775 10.0816C4.39876 10.1575 4.25641 10.2791 4.18367 10.3686C4.11093 10.458 4.02087 10.6222 4.0545 11.1556C4.08985 11.716 4.24397 12.4678 4.48221 13.6113L5.31554 17.6113C5.47951 18.3984 5.58575 18.8998 5.70992 19.2659C5.82528 19.6059 5.92035 19.7144 5.99532 19.7754C6.07029 19.8363 6.19586 19.9073 6.55232 19.9508C6.93602 19.9977 7.44854 19.9995 8.25248 19.9995H15.7474C16.5513 19.9995 17.0639 19.9977 17.4475 19.9508C17.804 19.9073 17.9296 19.8363 18.0046 19.7754C18.0795 19.7144 18.1746 19.6059 18.2899 19.2659C18.4141 18.8998 18.5204 18.3984 18.6843 17.6114L19.5177 13.6113C19.7559 12.4678 19.91 11.716 19.9454 11.1556C19.979 10.6222 19.8889 10.458 19.8162 10.3686C19.7435 10.2791 19.6011 10.1575 19.0721 10.0816C18.5162 10.0019 17.7488 9.99949 16.5807 9.99949H7.41915C6.25107 9.99949 5.48366 10.0019 4.92775 10.0816Z" fill="#2E2E2E"/>
</svg>
