<svg width="24" height="24" viewBox="0 0 24 24" fill="none" xmlns="http://www.w3.org/2000/svg">
<path fill-rule="evenodd" clip-rule="evenodd" d="M12.0106 4.45013C9.7995 4.45013 8.00708 6.24255 8.00708 8.45362C8.00708 10.6647 9.7995 12.4571 12.0106 12.4571C14.2216 12.4571 16.014 10.6647 16.014 8.45362C16.014 6.24255 14.2216 4.45013 12.0106 4.45013ZM10.0088 8.45362C10.0088 7.34809 10.905 6.45187 12.0106 6.45187C13.1161 6.45187 14.0123 7.34809 14.0123 8.45362C14.0123 9.55915 13.1161 10.4554 12.0106 10.4554C10.905 10.4554 10.0088 9.55915 10.0088 8.45362Z" fill="#2E2E2E"/>
<path fill-rule="evenodd" clip-rule="evenodd" d="M12.0106 23.0199C18.091 23.0199 23.0201 18.0907 23.0201 12.0103C23.0201 5.92989 18.091 1.00073 12.0106 1.00073C5.93013 1.00073 1.00098 5.92989 1.00098 12.0103C1.00098 18.0907 5.93013 23.0199 12.0106 23.0199ZM12.0106 21.0181C14.4103 21.0181 16.5909 20.0797 18.2054 18.5499C16.6149 16.9713 14.4266 15.9979 12.0106 15.9979C9.59457 15.9979 7.4063 16.9713 5.81579 18.5499C7.43025 20.0798 9.61082 21.0181 12.0106 21.0181ZM12.0106 13.9962C14.9194 13.9962 17.5598 15.1474 19.5002 17.0166C20.4591 15.5848 21.0184 13.8629 21.0184 12.0103C21.0184 7.03542 16.9854 3.00247 12.0106 3.00247C7.03566 3.00247 3.00272 7.03542 3.00272 12.0103C3.00272 13.8629 3.56199 15.5849 4.5209 17.0166C6.46135 15.1474 9.10174 13.9962 12.0106 13.9962Z" fill="#2E2E2E"/>
</svg>
