<svg width="20" height="20" viewBox="0 0 20 20" fill="none" xmlns="http://www.w3.org/2000/svg">
<path d="M4.93417 2.43992e-06C4.04769 -4.73896e-05 3.28387 -9.01893e-05 2.67221 0.0821453C2.0167 0.170277 1.38835 0.369022 0.878684 0.878684C0.369022 1.38835 0.170277 2.0167 0.0821453 2.67221C-9.01893e-05 3.28387 -4.73896e-05 4.04769 2.43992e-06 4.93417V15.0658C-4.73896e-05 15.9523 -9.01893e-05 16.7161 0.0821453 17.3278C0.170277 17.9833 0.369022 18.6117 0.878684 19.1213C1.38835 19.631 2.0167 19.8297 2.67221 19.9179C3.28388 20.0001 4.0477 20.0001 4.9342 20H7.06581C7.95231 20.0001 8.71613 20.0001 9.3278 19.9179C9.98331 19.8297 10.6117 19.631 11.1213 19.1213C11.631 18.6117 11.8297 17.9833 11.9179 17.3278C12.0001 16.7161 12.0001 15.9523 12 15.0658L12 14.5C12 13.9477 11.5523 13.5 11 13.5C10.4477 13.5 10 13.9477 10 14.5V15C10 15.9711 9.99788 16.5988 9.9357 17.0613C9.87738 17.495 9.78324 17.631 9.70711 17.7071C9.63099 17.7832 9.49504 17.8774 9.0613 17.9357C8.59879 17.9979 7.97108 18 7 18H5C4.02893 18 3.40122 17.9979 2.93871 17.9357C2.50497 17.8774 2.36902 17.7832 2.2929 17.7071C2.21677 17.631 2.12263 17.495 2.06431 17.0613C2.00213 16.5988 2 15.9711 2 15V5C2 4.02893 2.00213 3.40122 2.06431 2.93871C2.12263 2.50497 2.21677 2.36902 2.2929 2.2929C2.36902 2.21677 2.50497 2.12263 2.93871 2.06431C3.40122 2.00213 4.02893 2 5 2H7C7.97108 2 8.59879 2.00213 9.0613 2.06431C9.49504 2.12263 9.63099 2.21677 9.70711 2.2929C9.78324 2.36902 9.87738 2.50497 9.9357 2.93871C9.99788 3.40122 10 4.02893 10 5V6C10 6.55229 10.4477 7 11 7C11.5523 7 12 6.55229 12 6L12 4.93417C12.0001 4.04769 12.0001 3.28387 11.9179 2.67221C11.8297 2.0167 11.631 1.38835 11.1213 0.878684C10.6117 0.369022 9.98331 0.170277 9.3278 0.0821453C8.71614 -9.01893e-05 7.95232 -4.73896e-05 7.06583 2.43992e-06H4.93417Z" fill="#121212"/>
<path d="M14.2929 5.29289C14.6834 4.90237 15.3166 4.90237 15.7071 5.29289L19.7071 9.29289C20.0976 9.68342 20.0976 10.3166 19.7071 10.7071L15.7071 14.7071C15.3166 15.0976 14.6834 15.0976 14.2929 14.7071C13.9024 14.3166 13.9024 13.6834 14.2929 13.2929L16.5882 10.9976H6.00001C5.44903 10.9976 5.00237 10.551 5.00237 9.99999C5.00237 9.44901 5.44903 9.00235 6.00001 9.00235H16.5881L14.2929 6.70711C13.9024 6.31658 13.9024 5.68342 14.2929 5.29289Z" fill="#121212"/>
</svg>
