<svg width="20" height="20" viewBox="0 0 20 20" fill="none" xmlns="http://www.w3.org/2000/svg">
<path d="M6.00004 8.99763C6.55102 8.99763 6.99768 8.55097 6.99768 7.99999C6.99768 7.44901 6.55102 7.00235 6.00004 7.00235H5.00004C4.44906 7.00235 4.0024 7.44901 4.0024 7.99999C4.0024 8.55097 4.44906 8.99763 5.00004 8.99763H6.00004Z" fill="#2A2A2A"/>
<path d="M6.99768 12C6.99768 12.551 6.55102 12.9976 6.00004 12.9976H5.00004C4.44906 12.9976 4.0024 12.551 4.0024 12C4.0024 11.449 4.44906 11.0023 5.00004 11.0023H6.00004C6.55102 11.0023 6.99768 11.449 6.99768 12Z" fill="#2A2A2A"/>
<path d="M15.4977 12C15.4977 12.551 15.051 12.9976 14.5 12.9976H10C9.44906 12.9976 9.0024 12.551 9.0024 12C9.0024 11.449 9.44906 11.0023 10 11.0023H14.5C15.051 11.0023 15.4977 11.449 15.4977 12Z" fill="#2A2A2A"/>
<path d="M15.4977 7.99999C15.4977 8.55097 15.051 8.99763 14.5 8.99763H10C9.44906 8.99763 9.0024 8.55097 9.0024 7.99999C9.0024 7.44901 9.44906 7.00235 10 7.00235H14.5C15.051 7.00235 15.4977 7.44901 15.4977 7.99999Z" fill="#2A2A2A"/>
<path fill-rule="evenodd" clip-rule="evenodd" d="M4.93417 2.43992e-06C4.04769 -4.73896e-05 3.28387 -9.01893e-05 2.67221 0.0821453C2.0167 0.170277 1.38835 0.369022 0.878684 0.878684C0.369022 1.38835 0.170277 2.0167 0.0821453 2.67221C-9.01893e-05 3.28387 -4.73896e-05 4.04769 2.43992e-06 4.93417V15.0658C-4.73896e-05 15.9523 -9.01893e-05 16.7161 0.0821453 17.3278C0.170277 17.9833 0.369022 18.6117 0.878684 19.1213C1.38835 19.631 2.0167 19.8297 2.67221 19.9179C3.28388 20.0001 4.0477 20.0001 4.9342 20H15.0658C15.9523 20.0001 16.7161 20.0001 17.3278 19.9179C17.9833 19.8297 18.6117 19.631 19.1213 19.1213C19.631 18.6117 19.8297 17.9833 19.9179 17.3278C20.0001 16.7161 20.0001 15.9523 20 15.0658V4.9342C20.0001 4.0477 20.0001 3.28388 19.9179 2.67221C19.8297 2.0167 19.631 1.38835 19.1213 0.878684C18.6117 0.369022 17.9833 0.170277 17.3278 0.0821453C16.7161 -9.01893e-05 15.9523 -4.73896e-05 15.0658 2.43992e-06H4.93417ZM2.2929 2.2929C2.36902 2.21677 2.50497 2.12263 2.93871 2.06431C3.40122 2.00213 4.02893 2 5 2H15C15.9711 2 16.5988 2.00213 17.0613 2.06431C17.495 2.12263 17.631 2.21677 17.7071 2.2929C17.7832 2.36902 17.8774 2.50497 17.9357 2.93871C17.9979 3.40122 18 4.02893 18 5V15C18 15.9711 17.9979 16.5988 17.9357 17.0613C17.8774 17.495 17.7832 17.631 17.7071 17.7071C17.631 17.7832 17.495 17.8774 17.0613 17.9357C16.5988 17.9979 15.9711 18 15 18H5C4.02893 18 3.40122 17.9979 2.93871 17.9357C2.50497 17.8774 2.36902 17.7832 2.2929 17.7071C2.21677 17.631 2.12263 17.495 2.06431 17.0613C2.00213 16.5988 2 15.9711 2 15V5C2 4.02893 2.00213 3.40122 2.06431 2.93871C2.12263 2.50497 2.21677 2.36902 2.2929 2.2929Z" fill="#2A2A2A"/>
</svg>